<svg xmlns="http://www.w3.org/2000/svg" viewBox="0 0 595.5 249.9"><defs><style>.cls-1,.cls-2{fill:#333;}.cls-2{stroke:#333;stroke-miterlimit:10;}</style></defs><g id="Layer_2" data-name="Layer 2"><g id="Layer_1-2" data-name="Layer 1"><path class="cls-1" d="M192.84,74.1a7.93,7.93,0,0,0-7.31,4.9H4.8A110.51,110.51,0,0,0,.48,100H87.36v28.36H91v.1l46.72-.25a7.9,7.9,0,1,0,.33-5l-45.64.24V99.34h0V95H9.24a102.46,102.46,0,0,1,2.43-11H185.22a7.89,7.89,0,0,0,5.12,5.47l2.79.4h.25a7.89,7.89,0,0,0-.54-15.76Zm-71,62a7.89,7.89,0,0,0-7.2,4.67l-40.27.2V122.14h0V118H0a112,112,0,0,0,49.24,86.89l4.48-6.63A104,104,0,0,1,8.43,123H69.37V234.5a7.9,7.9,0,1,0,5,0V146l13-.06v58.76a7.9,7.9,0,1,0,5,0V145.88l21.75-.11a7.9,7.9,0,1,0,7.69-9.67ZM74.74,242a2.9,2.9,0,1,1-2.9-2.9A2.9,2.9,0,0,1,74.74,242Zm47.1-95.1a2.9,2.9,0,1,1,2.9-2.9A2.9,2.9,0,0,1,121.84,146.9Z"/><path class="cls-1" d="M256.84,32.1a7.91,7.91,0,0,0-7.3,4.9H192l0,0,0,0h-.16v.19L169.56,64H19.6A104,104,0,0,1,179.11,32.68l5.18-6.1A112,112,0,0,0,8.43,69H172.2v-.55l.1.08,22-26.53h54.87a7.89,7.89,0,1,0,7.63-9.9Zm0,10.8a2.9,2.9,0,1,1,2.9-2.9A2.9,2.9,0,0,1,256.84,42.9Z"/><path class="cls-2" d="M225.19,108.1l12.45-3.75a124.67,124.67,0,0,0-2.81-20l-13.05-.18a112.94,112.94,0,0,0-3.37-10.9l10.73-7.45q-1.83-4.66-4.07-9.26t-4.79-8.91l-12.51,3.88q-2.58-4.1-5.44-7.89l-5.49,6.54a105.21,105.21,0,0,1-39.07,156.17,104.61,104.61,0,0,1-52.43,10.46v8.72c3.38.19,6.78.23,10.18.12l3.67,12.16a124.67,124.67,0,0,0,20-2.81l.17-12.73a113.35,113.35,0,0,0,11.1-3.42l7.26,10.46q4.67-1.83,9.26-4.07t8.91-4.79l-3.78-12.2a114.57,114.57,0,0,0,9.48-6.64l10.19,7.74a126.13,126.13,0,0,0,14.53-14l-7.4-10.49a114,114,0,0,0,6.92-9.24L218,179.81A127,127,0,0,0,227.46,162l-10.34-7.73q2.13-5.34,3.72-10.87l12.93.28a127.37,127.37,0,0,0,3.52-19.9L225,119.56Q225.39,113.86,225.19,108.1Z"/><path class="cls-1" d="M298.6,35.2h34.65a.09.09,0,0,1,.1.1V48.14c0,.07,0,.1-.1.1H298.6c-.07,0-.1,0-.1-.1V35.3A.09.09,0,0,1,298.6,35.2Zm0,25.74h34.65c.07,0,.1,0,.1.1V73.68c0,.07,0,.1-.1.1H311.73v31.47c0,.07,0,.1-.09.1h-13c-.07,0-.1,0-.1-.1V61C298.5,61,298.53,60.94,298.6,60.94Z"/><path class="cls-1" d="M378.74,34.86q17,0,28.14,14.61a34.52,34.52,0,0,1,6.57,20.88q0,18.33-15.74,29.46a38.45,38.45,0,0,1-5.93,3.18,36.28,36.28,0,0,1-13,2.36q-19.07,0-29.95-16.72a35.92,35.92,0,0,1,3.83-42.15A37.86,37.86,0,0,1,357,42.36,35,35,0,0,1,378.74,34.86Zm-22.15,35v.88q0,12,10.05,18.68A21.8,21.8,0,0,0,378.79,93q11.37,0,18.38-10.24a23.24,23.24,0,0,0,3.48-12.55,22.58,22.58,0,0,0-8.87-18.38,20.84,20.84,0,0,0-13.23-4.46q-11.48,0-18.34,9.85A23.27,23.27,0,0,0,356.59,69.86Z"/><path class="cls-1" d="M422.91,34.86H438q12.56,0,17.45,2.94,5.44,3,8.14,10a24,24,0,0,1,1.13,7.11v.88q0,11.28-9.66,16.62A36,36,0,0,1,451.39,74v0L468,105.3l-.1,0H453.4q-.19-.19-3.93-7.31-.29-.44-12-22.5h-1.27v29.71c0,.07,0,.1-.1.1H422.91c-.07,0-.1,0-.1-.1V62.51c0-.07,0-.1.1-.1h14.6c5.3,0,8.58-.26,9.86-.79a5.81,5.81,0,0,0,3.38-2.4,7.66,7.66,0,0,0,.93-3.72v-.59A6.44,6.44,0,0,0,448,49a15.56,15.56,0,0,0-6.27-1q-8.13,0-13.48,0h-5.34c-.07,0-.1,0-.1-.1V35C422.81,34.89,422.84,34.86,422.91,34.86Z"/><path class="cls-1" d="M513.59,35a39.14,39.14,0,0,1,20.29,5.29,40.27,40.27,0,0,1,5.49,4.22q2,1.81,3.14,3.13s-3,3-9,8.83q-8.58-9-19.85-9-12.51,0-19.81,10.44a21.8,21.8,0,0,0-3.38,11.71v.54a22.06,22.06,0,0,0,7.06,16.37,23.59,23.59,0,0,0,17,6.57q13.14,0,18.33-11.47H513.59c-.07,0-.1,0-.1-.1V69.76a.16.16,0,0,1,.1-.05h33.63c0,1.57,0,2.68,0,3.34a33.37,33.37,0,0,1-5.73,18.13q-9.56,14.17-27.6,14.17-15.43,0-25.78-9.95a35.44,35.44,0,0,1-4.76-5.89,35.8,35.8,0,0,1-5.68-19V69.22a33.51,33.51,0,0,1,8.67-22.45Q496.88,35,513.59,35Z"/><path class="cls-1" d="M557.16,35H595.4a.09.09,0,0,1,.1.1V48a.09.09,0,0,1-.1.1H557.16c-.06,0-.09,0-.09-.1V35.06C557.07,35,557.1,35,557.16,35Zm0,25.83H595.4a.09.09,0,0,1,.1.1V73.58a.09.09,0,0,1-.1.1h-25V92.16h25c.06,0,.1.07.1.1v13a.09.09,0,0,1-.1.1H557.16c-.06,0-.09,0-.09-.1V60.89C557.07,60.82,557.1,60.79,557.16,60.79Z"/><path class="cls-1" d="M333.55,155.33q16.95,0,28.13,14.6a34.56,34.56,0,0,1,6.57,20.88q0,18.34-15.73,29.46a38.53,38.53,0,0,1-5.93,3.19,36.32,36.32,0,0,1-13,2.35q-19.07,0-29.95-16.71a36,36,0,0,1,3.82-42.16,41.55,41.55,0,0,1,4.41-4.12A35,35,0,0,1,333.55,155.33Zm-22.16,35v.89a21.24,21.24,0,0,0,10.05,18.67,21.76,21.76,0,0,0,12.16,3.58q11.37,0,18.38-10.24a23.27,23.27,0,0,0,3.48-12.55,22.56,22.56,0,0,0-8.87-18.38,20.82,20.82,0,0,0-13.24-4.47q-11.46,0-18.33,9.86A23.16,23.16,0,0,0,311.39,190.32Z"/><path class="cls-1" d="M377.71,155.28h12.75q.48.67,26.47,40.58,3.68,5.59,3.72,5.79h.05V183.46a.09.09,0,0,1,.1-.1H434c.07,0,.1.07.1.1v42.25c0,.07,0,.1-.1.1H421.29q-1.38-2-22.4-34.26-7.15-10.89-7.8-12h0v46.12a.09.09,0,0,1-.1.1H377.71a.09.09,0,0,1-.1-.1V155.37C377.61,155.31,377.65,155.28,377.71,155.28Zm43.09,0H434c.07,0,.1,0,.1.09v13c0,.07,0,.1-.1.1H420.8c-.07,0-.1,0-.1-.1v-13C420.7,155.31,420.73,155.28,420.8,155.28Z"/></g></g></svg>